<mxfile host="app.diagrams.net" modified="2023-09-12T13:01:18.177Z" agent="Mozilla/5.0 (Windows NT 10.0; Win64; x64) AppleWebKit/537.36 (KHTML, like Gecko) Chrome/116.0.0.0 Safari/537.36" etag="bRFfH9WUUTv4pFC04IJg" version="21.7.2" type="device">
  <diagram id="_lGZGJvk3q2dsF-b6tkT" name="PÃ¡gina-1">
    <mxGraphModel dx="1434" dy="782" grid="1" gridSize="10" guides="1" tooltips="1" connect="1" arrows="1" fold="1" page="1" pageScale="1" pageWidth="827" pageHeight="1169" math="0" shadow="0">
      <root>
        <mxCell id="0" />
        <mxCell id="1" parent="0" />
        <mxCell id="0ke1TGHcGjM2EOrOQbJE-1" value="Cliente&lt;br&gt;" style="shape=umlActor;verticalLabelPosition=bottom;verticalAlign=top;html=1;outlineConnect=0;" parent="1" vertex="1">
          <mxGeometry x="110" y="210" width="30" height="60" as="geometry" />
        </mxCell>
        <mxCell id="0ke1TGHcGjM2EOrOQbJE-2" value="Agente" style="shape=umlActor;verticalLabelPosition=bottom;verticalAlign=top;html=1;outlineConnect=0;" parent="1" vertex="1">
          <mxGeometry x="50" y="310" width="30" height="60" as="geometry" />
        </mxCell>
        <mxCell id="0ke1TGHcGjM2EOrOQbJE-11" value="Efetuar Cadastro " style="ellipse;whiteSpace=wrap;html=1;" parent="1" vertex="1">
          <mxGeometry x="340" y="100" width="105" height="70" as="geometry" />
        </mxCell>
        <mxCell id="0ke1TGHcGjM2EOrOQbJE-12" value="Introduzir Pedido de Aluguel  " style="ellipse;whiteSpace=wrap;html=1;" parent="1" vertex="1">
          <mxGeometry x="390" y="170" width="105" height="70" as="geometry" />
        </mxCell>
        <mxCell id="0ke1TGHcGjM2EOrOQbJE-13" value="Cancelar Pedido de Aluguel" style="ellipse;whiteSpace=wrap;html=1;" parent="1" vertex="1">
          <mxGeometry x="390" y="260" width="105" height="70" as="geometry" />
        </mxCell>
        <mxCell id="0ke1TGHcGjM2EOrOQbJE-14" value="Consultar Pedido de Aluguel  " style="ellipse;whiteSpace=wrap;html=1;" parent="1" vertex="1">
          <mxGeometry x="335" y="340" width="105" height="70" as="geometry" />
        </mxCell>
        <mxCell id="0ke1TGHcGjM2EOrOQbJE-17" value="Modificar Pedido de Aluguel" style="ellipse;whiteSpace=wrap;html=1;" parent="1" vertex="1">
          <mxGeometry x="270" y="410" width="105" height="70" as="geometry" />
        </mxCell>
        <mxCell id="0ke1TGHcGjM2EOrOQbJE-21" value="" style="endArrow=open;html=1;rounded=0;entryX=0.01;entryY=0.771;entryDx=0;entryDy=0;entryPerimeter=0;endFill=0;" parent="1" target="0ke1TGHcGjM2EOrOQbJE-11" edge="1">
          <mxGeometry width="50" height="50" relative="1" as="geometry">
            <mxPoint x="150" y="210" as="sourcePoint" />
            <mxPoint x="230" y="50" as="targetPoint" />
          </mxGeometry>
        </mxCell>
        <mxCell id="0ke1TGHcGjM2EOrOQbJE-23" value="" style="endArrow=open;html=1;rounded=0;endFill=0;" parent="1" target="0ke1TGHcGjM2EOrOQbJE-12" edge="1">
          <mxGeometry width="50" height="50" relative="1" as="geometry">
            <mxPoint x="150" y="240" as="sourcePoint" />
            <mxPoint x="261" y="64" as="targetPoint" />
          </mxGeometry>
        </mxCell>
        <mxCell id="0ke1TGHcGjM2EOrOQbJE-33" value="" style="endArrow=open;html=1;rounded=0;entryX=0.019;entryY=0.657;entryDx=0;entryDy=0;entryPerimeter=0;endFill=0;" parent="1" target="0ke1TGHcGjM2EOrOQbJE-13" edge="1">
          <mxGeometry width="50" height="50" relative="1" as="geometry">
            <mxPoint x="160" y="250" as="sourcePoint" />
            <mxPoint x="361" y="164" as="targetPoint" />
          </mxGeometry>
        </mxCell>
        <mxCell id="0ke1TGHcGjM2EOrOQbJE-34" value="" style="endArrow=open;html=1;rounded=0;entryX=0.057;entryY=0.314;entryDx=0;entryDy=0;entryPerimeter=0;endFill=0;" parent="1" target="0ke1TGHcGjM2EOrOQbJE-14" edge="1">
          <mxGeometry width="50" height="50" relative="1" as="geometry">
            <mxPoint x="160" y="270" as="sourcePoint" />
            <mxPoint x="371" y="174" as="targetPoint" />
          </mxGeometry>
        </mxCell>
        <mxCell id="0ke1TGHcGjM2EOrOQbJE-35" value="" style="endArrow=open;html=1;rounded=0;entryX=0.267;entryY=0.057;entryDx=0;entryDy=0;entryPerimeter=0;endFill=0;" parent="1" target="0ke1TGHcGjM2EOrOQbJE-17" edge="1">
          <mxGeometry width="50" height="50" relative="1" as="geometry">
            <mxPoint x="150" y="290" as="sourcePoint" />
            <mxPoint x="381" y="184" as="targetPoint" />
          </mxGeometry>
        </mxCell>
        <mxCell id="0ke1TGHcGjM2EOrOQbJE-36" value="Avaliar Pedido de Aluguel " style="ellipse;whiteSpace=wrap;html=1;" parent="1" vertex="1">
          <mxGeometry x="230" y="520" width="105" height="70" as="geometry" />
        </mxCell>
        <mxCell id="6sMMFenJf_ofHinucYIq-3" value="" style="endArrow=open;html=1;rounded=0;entryX=0;entryY=0.5;entryDx=0;entryDy=0;endFill=0;" edge="1" parent="1" target="0ke1TGHcGjM2EOrOQbJE-17">
          <mxGeometry width="50" height="50" relative="1" as="geometry">
            <mxPoint x="90" y="370" as="sourcePoint" />
            <mxPoint x="396" y="320" as="targetPoint" />
          </mxGeometry>
        </mxCell>
        <mxCell id="6sMMFenJf_ofHinucYIq-4" value="" style="endArrow=open;html=1;rounded=0;entryX=0;entryY=0.5;entryDx=0;entryDy=0;endFill=0;" edge="1" parent="1" target="0ke1TGHcGjM2EOrOQbJE-36">
          <mxGeometry width="50" height="50" relative="1" as="geometry">
            <mxPoint x="90" y="390" as="sourcePoint" />
            <mxPoint x="477" y="325" as="targetPoint" />
          </mxGeometry>
        </mxCell>
        <mxCell id="6sMMFenJf_ofHinucYIq-5" value="Usuario" style="shape=umlActor;verticalLabelPosition=bottom;verticalAlign=top;html=1;outlineConnect=0;" vertex="1" parent="1">
          <mxGeometry x="50" y="60" width="30" height="60" as="geometry" />
        </mxCell>
        <mxCell id="6sMMFenJf_ofHinucYIq-6" value="Efetuar Login" style="ellipse;whiteSpace=wrap;html=1;" vertex="1" parent="1">
          <mxGeometry x="270" y="20" width="105" height="70" as="geometry" />
        </mxCell>
        <mxCell id="6sMMFenJf_ofHinucYIq-8" value="" style="endArrow=open;html=1;rounded=0;entryX=0;entryY=0.5;entryDx=0;entryDy=0;endFill=0;" edge="1" parent="1" target="6sMMFenJf_ofHinucYIq-6">
          <mxGeometry width="50" height="50" relative="1" as="geometry">
            <mxPoint x="80" y="90" as="sourcePoint" />
            <mxPoint x="434" y="204" as="targetPoint" />
          </mxGeometry>
        </mxCell>
        <mxCell id="6sMMFenJf_ofHinucYIq-9" value="" style="endArrow=block;html=1;rounded=0;endFill=0;endSize=7;" edge="1" parent="1">
          <mxGeometry width="50" height="50" relative="1" as="geometry">
            <mxPoint x="60" y="300" as="sourcePoint" />
            <mxPoint x="50" y="150" as="targetPoint" />
          </mxGeometry>
        </mxCell>
        <mxCell id="6sMMFenJf_ofHinucYIq-10" value="" style="endArrow=block;html=1;rounded=0;endFill=0;endSize=7;" edge="1" parent="1" source="0ke1TGHcGjM2EOrOQbJE-1">
          <mxGeometry width="50" height="50" relative="1" as="geometry">
            <mxPoint x="90" y="290" as="sourcePoint" />
            <mxPoint x="80" y="140" as="targetPoint" />
          </mxGeometry>
        </mxCell>
      </root>
    </mxGraphModel>
  </diagram>
</mxfile>
